<?xml version="1.0" encoding="UTF-8"?>
<svg id="Camada_1" xmlns="http://www.w3.org/2000/svg" version="1.1" viewBox="0 0 2400 2400">
  <!-- Generator: Adobe Illustrator 29.8.1, SVG Export Plug-In . SVG Version: 2.1.1 Build 2)  -->
  <defs>
    <style>
      .st0 {
        fill-rule: evenodd;
      }
    </style>
  </defs>
  <path class="st0" d="M1022.39,1313.22c12.82-14.99,17.86-29.14,8.66-45.53l158.27-647.48c4.09,4.91,6.23,11.49,10.12,19.02,7.15-5.62,17.04-9.72,18.43-15.2,4.01-15.77,15.06-31.22,8.74-48.11-3.72-9.94-6.51-20.31-9.42-30.6-6.11-21.63-12.07-41.95-3.19-67.23,9.4-26.79,13.79-55.07,23.56-82.18,9.27-25.72,12.16-27.74,38.94-32.34,32.8-5.63,58.82-4.98,89.1,1.82,27.19-4.2,27.69,16.69,35.65,25.92,13.45,11.57,13.42,23.44,25.57,36.35,7.66,8.14,32.13,11.09,43.13,9.32,10.85-1.74,22.15-1.58,26.34,1.51-2.83,20.11-8.22,22.78-25.38,23.93-6.17.41-12.24-1.12-18.43-1.37-6.42-.26-12.9-.05-18.8-.05.35,18.87-.26,35.06,1.3,50.85.85,8.52,4.13,17.19,8.53,24.31,10.96,17.73,9.82,28.26-7.29,41.2-6.35,4.8-9.8,10.09-10.14,17.74-.17,4-1.53,8.15-2.82,12.11-7.25,21.95-21.83,34.51-44.88,34.01-10.04-.23-15.04,4.43-20.04,12.6-7.98,13.05-17.16,25.44-26.37,38.87,5.93,7.76,10.77,13.78,15.25,20.07,4.56,6.42,9.67,12.65,13,19.78,10.58,22.66,25.97,43.02,28.85,69.44.29,2.65,2.35,5.54,1.53,7.74-10.81,29.38-4.28,61.62-23,89.64-4.32,6.47-14.85,39.98-19.24,46.47.36,1.34,40.69-11.26,46.77-10.36,22.25,3.32,43.76,1.14,65.61-7.41,29.89-11.69,12.9-42.32,42.82-53.89,25.98-10.05,51.75-11.12,77.48-6.36,9.24,1.71,13.56,7.52,13.35,17.13-.82,37.07-17.52,67.44-47.12,91.6-10.88,8.86-24.12,7.15-36.33,5.48-24.46-3.35-1.81,13.21-27.14,19.54-5.44,1.36-11.86,1.78-16,5.04-12.96,10.22-27.34,10.31-41.86,12.91-18.5,3.32-36.72,9.62-55.11,14.36-13.57,3.48-18.91,12.85-18.15,25.03.82,13.05-1.43,24.84-9.83,36.12-2.39,3.21-3.47,7.82-3.92,11.82-2.73,23.52-4.91,47.04-7.7,70.56-1.03,8.67-3.9,17.32-4.67,25.98-.44,5.07.12,11.23,2.79,14.98,10.11,14.23,16.26,28.62,16.06,48.09-.18,17.92,7.21,35.4,12.54,52.58,1.92,6.13,2.36,10.66.05,17.33l-335.64-23.09Z"/>
  <path class="st0" d="M1231.24,596.49c13.13,11.73,42.02-39.44,38.1-57.59-1.28-5.95-10.11,8.1-17.37,2.75-4.13-3.04-11-17-7.66-32.73,6.53-30.72,27.21-14.26,32.1-4.62,1.34,2.62,6-9.08,6.62-17.1.28-3.58,4-16.62,9.61-17.5,17.61-2.75,95.97,4.71,101.89,1.94,16.36-7.67,37.86,19.9,47.15-6.24.83-2.34,8.59-7.3-5.31-8.76-42.01-4.41-80.6-6.54-121.53-13.26-14.78-2.43-86.94-10.41-91.16,8.64-8.74,39.41-13.96,16.24-13.96,75.31,0,16.93,3.44,29.23,12.8,42.99,4.7,6.9,1.41,19.64,8.73,26.17"/>
  <path class="st0" d="M1429.8,458c-52.33-6.1-94.63-12.01-143.01-12.77-19.01-.3-41.2-1.01-61.66,1.87,3.01-32.17,8.15-58.48,22.33-74.69,19.49-4.26,44.39-11.46,64.32-10.63l38.27,1.59c5.08-1.09,16.46,4.03,26.39,3.19,20.24-1.71,16.28,17.76,30.98,34.16,9.45,10.54,6.75,12.23,18.21,23.39,9.11,8.87,7.76,11.03,16.12,13.22,4.08,1.07,9.52.99,22.48.99,2.19,0,13.9-2.73,22.53-1.81,6.35.67,10.55,4.77,10.55,5.93,0,21.31-26.81,21.32-54.23,17.68-3.67-.49-8.65-4.49-13.29-2.13"/>
  <path class="st0" d="M1216.57,628.17c49.25,28.46,61.29,47.63,105.39,50.28,9.94.59,13.63,21.09,30.2,36.68,28.25,26.58,57.29,119.98,23.98,158.15-10.53,12.07-113.25,13.77-116.06,37.09-1.23,10.2-11.21,104.7-6.7,110.57,38.07,49.54,109.77-5.13,109.77,24.97,0,3.66-21.92,65.71-24.66,81.39-11.44,65.6,6.92,63.01,6.92,127.86,0,14.62-200.31,49.97-204.9,41.69-14.24-25.67-111.35-5.98-116.29-37.96-6.38-41.24,20.41-25.84,52.91-79.15,30.65-50.3-12.02-242.78,38.91-317.06,63.21-92.18-5.15-149.55,80.25-209.22,9.81-6.86,11.85-2.09,20.29-25.27"/>
  <path class="st0" d="M1366.43,907.98c-28.36-3.98-70.05-9.9-101.45,1.33-41.65,14.89-13.34-13.22-23.58-31.49-12.78-22.79-38.68-85.17,2.2-119.06,25.1-20.8-18.13-24.51,95.52-19.84,6.38.26,18.98-.46,27.37,7.88,24.26,24.13,39.27,77.3,17.99,126.93-3.99,9.31-19.23,34.55-18.05,34.25"/>
  <path class="st0" d="M1053.39,1155.97l-53.96-21.74c-26.71-10.76-18.85-70.77-59.43-88.8-13.36-5.94-24.98-40.92-19.51-55.49l27.24-72.56-7.84-78.1c-1.84-18.35,13.03-65.8-1.99-77.02-28.62-21.39-7.58-9.76,4.95-48.28,3.08-9.47,42.06-43.42,27.38-54.03,98.62-3.82,37.91,28.86,74.62-41.67,9.51-18.27,32.3-3.48,63.3-11.39,46.4-11.83,31.11-15.49,65.59-1.76,8.44,3.36,19.87,14.5,35.92,15.6,7.97,15.24-13.62,17.86-13.62,57.44,0,18.1-46.15,90.61-55.49,145.61-11.14,65.57,1.99,173.06-22.12,221.03-.96,1.9-6.07,42.62-11.01,51.03l-50.37,85.73-3.66-25.6Z"/>
  <path class="st0" d="M1083.44,708.88c23.12-12.27,181.75,2.73,206.39,20.08,13.3,9.36,69.57,28.16,94.45,28.65,3.26.06-7.28-.18-5.26-.81-8.06-13.98-6.88-29.48-17.09-40.01-9.96-10.26-17.82-15.56-43.69-30.27-7.62-4.34-93.33-41.75-106.92-43.77-103.74-15.35-293.15,60.56-178.03,59.28,21.46-.24-7.53,2.58,31.98,6.48,5.24.51,12.83,3.21,18.17.37"/>
  <path class="st0" d="M964.93,671.93l-39.77,74.02,15.67,70.52,1.04,72.94-5.35,51.75-9.86,79.54c33.03,0,33.88-7,61.36-40.77,8.01-9.85,24.18-48.26,27.72-65.32,5.6-27.02,9.96-177.93,6.1-187.33-13.81-33.61,21.18-5.36-46.75-48.73-3.56-2.27-6.43-5.54-10.15-6.63"/>
  <polygon class="st0" points="1020.21 704.79 1149.85 800.94 1133.82 819.06 1042.82 753.26 1020.21 704.79"/>
  <polygon class="st0" points="1025.91 877.36 1125.38 942.46 1128.91 1034.4 1063.76 976.77 1012.05 918.16 1025.91 877.36"/>
  <polygon class="st0" points="952.76 1019.35 1082.39 1189.18 1097.63 1117.39 1066.26 1081.43 989.97 983.44 953.29 1006.79 952.76 1019.35"/>
  <path class="st0" d="M922.61,774.04c67.13,27.49,69.75,23.92,144.01,9.66,10.43-2,46.72-2.16,54.51-9.36,9.04.35,12.56,25.48-60.45,32.88-20.24,2.06-13.03,5.19-52.19,5.19s-94.56,1.09-89.74-34.29l3.85-4.09Z"/>
  <path class="st0" d="M931.41,894.06c26.99-2.97,24.29,24.37,90.57-1.77,21.25-8.38,24.22-13.45,11.15,23.54-6.52,18.46-91.03,33.45-103.42-13.15-1.15-4.34-2.65-8.14,1.69-8.62"/>
  <path class="st0" d="M935.06,702.43c-3.95,3.28,16.19,6.57,37.04,11.57,14.1,3.38,28.44,14.3,39.43,15.72,19.7,2.54,26.6-16.36,33.18-13.46,3.31-7.11-5.2-37.97-29.99-40.47-20.76-2.08-27.1,1.03-50.9-3.53-21.5-4.11-18.47,21.6-28.76,30.16"/>
  <path class="st0" d="M935.2,692.13c97.28-52.26,131.97-43.14,295.66-43.14,0,24.74-64.79-2.21-104.62,10.55-39.25,12.58-52.66-11.2-92.5,9.24-30.64,15.72-75.19,42.44-98.54,23.34"/>
  <path class="st0" d="M996.13,1807.4c-16.99-40.79-9.22-106.38,4.11-171.01,8.77-42.53,15.37-71,9.98-108.9-1.78-12.53,5.6-115.5-2.06-149.34-1.85-8.13,9.08-99.97,20.63-135.27,38.66,2.43,158.63,1.34,230.89,6.86,100.99,7.72,83.49,8.89,99.19,146.2,11.12,97.31,39.82,195.02,52.43,283.54,7.17,50.37,24.67,97.7,41.84,137.5,10.82,25.09-.68-29.1-134.34-11.5-13.75,1.8-26.72-50.49-29.42-64.13-2.93-14.8-14.83-29.37-25.86-34.06-4.94-14.01-49.03-147.08-49.12-147.72-.96-6.54-23.51-117.21-25.82-123.66-27.56,65.85-18.23,66.58-25.18,119.59-3.61,27.5-14.64,36.26-27.97,61.07-9.43,17.56-23.59,41.94-21.32,92.12,1.04,22.89-29.61,39.28-17.22,101.15-23.86,17.1-83.95-22.41-100.73-2.45"/>
  <path class="st0" d="M974.06,1804.34c33.8-12.87,96.65-2.88,132.89.57,12.74,1.21,11.26,34.81-.39,63.45-11.72,28.8,9.42,30.29,5.53,45.98,32.92,7.98,15.93.8,69.51,24.27,17.96,7.87,100.84,22.69,32.66,62.82-14.21,8.37-78.46,23.14-101.94,18.46-46.48-9.27-58.12-4.86-91.72-.67-48.59,6.06-55.57.11-60.16-24.42-11.2-59.81,12.11-106.46,18.17-159.69.6-5.25.74-8.31.91-10.4,3.48-42.03-4.95-26.76-5.46-20.36"/>
  <path class="st0" d="M1293.42,1781.93c113.33-6.12,118.64,2.28,151.39,2.78,13.19.2,15.01,52.75,12.75,81.38-2.27,28.81,32.58,43.16,33.82,58.85,35.54,7.98,2.98-12.08,64.25,11.39,20.54,7.87,110.52,22.69,55.5,62.82-11.47,8.37-73.12,23.15-98.13,18.46-49.53-9.27-59.72-4.86-91.94-.66-46.61,6.07-87.51,9.35-83.64-16.69,7.5-50.62,4.86-28.6.24-59.48-3.81-25.5-18.28-62.76-15.71-80.52,1.9-13.12-21.58-52.86-25.26-59.98-12.07-23.35-4.49-23.25-3.27-18.35"/>
  <path class="st0" d="M969.16,1988.47c18.02,4.9,268.17,27.57,252.85-25.33,3.15-3.65,61.38,14.23-31.28,50.48-11.71,4.58-212.42,14.42-224.35,2.51-.49-.48-20.97-17.51,2.77-27.66"/>
  <path class="st0" d="M1347.57,1986.14c18.03,4.9,268.17,27.57,252.85-25.33,9.87,7.56,71.83,31.64-31.28,50.48-12.36,2.26-212.42,14.42-224.35,2.51-.48-.48-20.97-17.51,2.77-27.66"/>
  <path class="st0" d="M1222.81,1949.52c-14.47,8.01-151.33,35.28-35.39-7.71,8.2-3.04,1.93-2.72-11.23-1.92-4.03.24-4.89-5.01-11.03-3.26-5.03,1.44-19.37,9-24.15,10.1-41.19,9.44-49.79,11.64-48.38,8.58.63-1.35,37.2-8.62,41.68-12.85,15.35-14.52,23.17-19.19-19.38-12.09-13.93,2.32-33.98,18.9-62.18,19.52-18.17.4.56-2.27,19.07-17.27,7.43-6.03,24.03-8.29,24.03-22.02,0-30.24-13.98-64.18-9.69-79.81,2.54-9.25-1.62-20.35,26.96-19.06,6.25,6.15.4,11.25,1.87,16.86,2.09,7.94-4.75,20.76-7.85,27.85-12.78,29.23-42.91,46.9,77.55,71.84.52.1,11.29,4.09,13.79,10.38l24.32,10.85Z"/>
  <path class="st0" d="M1565.93,1943.78c-13.01,8.95-135.96,39.41-31.79-8.61,7.36-3.39,1.73-3.04-10.1-2.14-3.62.27-4.4-5.59-9.91-3.64-4.53,1.6-17.82,9.61-22.11,10.83-37.01,10.54-44.31,13.45-43.04,10.03.55-1.5,25.24-10.31,29.26-15.03,13.8-16.23,29-20.76-9.24-12.82-12.51,2.59-30.52,21.11-55.86,21.8-16.32.45.51-2.53,17.14-19.29,6.68-6.74,21.59-9.25,21.59-24.59,0-33.77-33.45-71.69-29.59-89.15,2.28-10.33-1.46-22.73,24.21-21.28,5.62,6.86.36,12.56,1.68,18.83,1.88,8.88,16.62,23.19,13.84,31.12-11.49,32.65-38.55,52.39,69.67,80.23.48.12,10.14,4.57,12.39,11.61l21.86,12.11Z"/>
  <path class="st0" d="M971.41,1602.65c8.83-42.52,33.44-72.23,31.64-88.42-1.4-12.57,2.02-90.21-5.69-124.04-1.85-8.13,27.31-105.99,38.93-141.29,38.93,2.43,159.74,1.35,232.5,6.87,101.7,7.72,84.07,8.89,99.88,146.2,5.42,47.09,38.11,109.89,58.19,180.97,24.54,86.85-101.33,24.51-181.45,49.51-34.8,10.86-22.2-66.54-22.23-66.86-.97-6.54-23.68-117.21-26-123.65-27.76,65.85-14.76,41.28-21.75,94.28-3.63,27.49-.8,79.26-28.16,85.11-56.28,12.03-200.36,9.65-175.86-18.69"/>
  <path class="st0" d="M980.29,1722.38c-15.49,0,140.34-11.35,133.37,7.71-6.55,17.88-10.03,19.1-15.65,45.37-.96,4.51-4.37,23.19-2.7,26.04-40.95-11.98-85.48,1.4-98.56-2.05-22.19-26.38,2.89-77.08-16.46-77.08"/>
  <path class="st0" d="M1268.07,1709.8c-15.49,0,157.5-12.57,150.55,4.95-6.53,16.44,15.92,35.65,10.33,59.83-.96,4.12-24.48,3.26-22.81,5.89-46.82-3.69-103.66,1.97-116.73-1.21-10.38-28.69-12.16-69.46-21.34-69.46"/>
  <path class="st0" d="M1231.24,596.49c13.13,11.73,42.02-39.44,38.1-57.59-1.28-5.95-10.11,8.1-17.37,2.75-4.13-3.04-11-17-7.66-32.73,6.53-30.72,27.21-14.26,32.1-4.62,1.34,2.62,6-9.08,6.62-17.1.28-3.58,4-16.62,9.61-17.5,17.61-2.75,95.97,4.71,101.89,1.94,16.36-7.67,37.86,19.9,47.15-6.24.83-2.34,8.59-7.3-5.31-8.76-42.01-4.41-80.6-6.54-121.53-13.26-14.78-2.43-86.94-10.41-91.16,8.64-8.74,39.41-13.96,16.24-13.96,75.31,0,16.93,3.44,29.23,12.8,42.99,4.7,6.9,1.41,19.64,8.73,26.17"/>
  <path class="st0" d="M1216.57,628.17c49.25,28.46,61.29,47.63,105.39,50.28,9.94.59,13.63,21.09,30.2,36.68,28.25,26.58,57.29,119.98,23.98,158.15-10.53,12.07-113.25,13.77-116.06,37.09-1.23,10.2-11.21,104.7-6.7,110.57,38.07,49.54,109.77-5.13,109.77,24.97,0,3.66-21.92,65.71-24.66,81.39-11.44,65.6,6.92,63.01,6.92,127.86,0,14.62-200.31,49.97-204.9,41.69-14.24-25.67-111.35-5.98-116.29-37.96-6.38-41.24,20.41-25.84,52.91-79.15,30.65-50.3-12.02-242.78,38.91-317.06,63.21-92.18-5.15-149.55,80.25-209.22,9.81-6.86,11.85-2.09,20.29-25.27"/>
  <path class="st0" d="M1366.43,907.98c-28.36-3.98-70.05-9.9-101.45,1.33-41.65,14.89-13.34-13.22-23.58-31.49-12.78-22.79-38.68-85.17,2.2-119.06,25.1-20.8-18.13-24.51,95.52-19.84,6.38.26,18.98-.46,27.37,7.88,24.26,24.13,39.27,77.3,17.99,126.93-3.99,9.31-19.23,34.55-18.05,34.25"/>
  <path class="st0" d="M1053.39,1155.97l-53.96-21.74c-26.71-10.76-18.85-70.77-59.43-88.8-13.36-5.94-24.98-40.92-19.51-55.49l27.24-72.56-7.84-78.1c-1.84-18.35,13.03-65.8-1.99-77.02-28.62-21.39-7.58-9.76,4.95-48.28,3.08-9.47,42.06-43.42,27.38-54.03,98.62-3.82,37.91,28.86,74.62-41.67,9.51-18.27,32.3-3.48,63.3-11.39,46.4-11.83,31.11-15.49,65.59-1.76,8.44,3.36,19.87,14.5,35.92,15.6,7.97,15.24-13.62,17.86-13.62,57.44,0,18.1-46.15,90.61-55.49,145.61-11.14,65.57,1.99,173.06-22.12,221.03-.96,1.9-6.07,42.62-11.01,51.03l-50.37,85.73-3.66-25.6Z"/>
  <path class="st0" d="M1083.44,708.88c23.12-12.27,181.75,2.73,206.39,20.08,13.3,9.36,69.57,28.16,94.45,28.65,3.26.06-7.28-.18-5.26-.81-8.06-13.98-6.88-29.48-17.09-40.01-9.96-10.26-17.82-15.56-43.69-30.27-7.62-4.34-93.33-41.75-106.92-43.77-103.74-15.35-293.15,60.56-178.03,59.28,21.46-.24-7.53,2.58,31.98,6.48,5.24.51,12.83,3.21,18.17.37"/>
  <path class="st0" d="M964.93,671.93l-39.77,74.02,15.67,70.52,1.04,72.94-5.35,51.75-9.86,79.54c33.03,0,33.88-7,61.36-40.77,8.01-9.85,24.18-48.26,27.72-65.32,5.6-27.02,9.96-177.93,6.1-187.33-13.81-33.61,21.18-5.36-46.75-48.73-3.56-2.27-6.43-5.54-10.15-6.63"/>
  <polygon class="st0" points="1020.21 704.79 1149.85 800.94 1133.82 819.06 1042.82 753.26 1020.21 704.79"/>
  <polygon class="st0" points="1025.91 877.36 1125.38 942.46 1128.91 1034.4 1063.76 976.77 1012.05 918.16 1025.91 877.36"/>
  <polygon class="st0" points="952.76 1019.35 1082.39 1189.18 1097.63 1117.39 1066.26 1081.43 989.97 983.44 953.29 1006.79 952.76 1019.35"/>
  <path class="st0" d="M922.61,774.04c67.13,27.49,69.75,23.92,144.01,9.66,10.43-2,46.72-2.16,54.51-9.36,9.04.35,12.56,25.48-60.45,32.88-20.24,2.06-13.03,5.19-52.19,5.19s-94.56,1.09-89.74-34.29l3.85-4.09Z"/>
  <path class="st0" d="M931.41,894.06c26.99-2.97,24.29,24.37,90.57-1.77,21.25-8.38,24.22-13.45,11.15,23.54-6.52,18.46-91.03,33.45-103.42-13.15-1.15-4.34-2.65-8.14,1.69-8.62"/>
  <path class="st0" d="M935.06,702.43c-3.95,3.28,16.19,6.57,37.04,11.57,14.1,3.38,28.44,14.3,39.43,15.72,19.7,2.54,26.6-16.36,33.18-13.46,3.31-7.11-5.2-37.97-29.99-40.47-20.76-2.08-27.1,1.03-50.9-3.53-21.5-4.11-18.47,21.6-28.76,30.16"/>
  <path class="st0" d="M935.2,692.13c97.28-52.26,131.97-43.14,295.66-43.14,0,24.74-64.79-2.21-104.62,10.55-39.25,12.58-52.66-11.2-92.5,9.24-30.64,15.72-75.19,42.44-98.54,23.34"/>
  <path class="st0" d="M996.13,1807.4c-16.99-40.79-9.22-106.38,4.11-171.01,8.77-42.53,15.37-71,9.98-108.9-1.78-12.53,5.6-115.5-2.06-149.34-1.85-8.13,9.08-99.97,20.63-135.27,38.66,2.43,158.63,1.34,230.89,6.86,100.99,7.72,83.49,8.89,99.19,146.2,11.12,97.31,39.82,195.02,52.43,283.54,7.17,50.37,24.67,97.7,41.84,137.5,10.82,25.09-.68-29.1-134.34-11.5-13.75,1.8-26.72-50.49-29.42-64.13-2.93-14.8-14.83-29.37-25.86-34.06-4.94-14.01-49.03-147.08-49.12-147.72-.96-6.54-23.51-117.21-25.82-123.66-27.56,65.85-18.23,66.58-25.18,119.59-3.61,27.5-14.64,36.26-27.97,61.07-9.43,17.56-23.59,41.94-21.32,92.12,1.04,22.89-29.61,39.28-17.22,101.15-23.86,17.1-83.95-22.41-100.73-2.45"/>
  <path class="st0" d="M974.06,1804.34c33.8-12.87,96.65-2.88,132.89.57,12.74,1.21,11.26,34.81-.39,63.45-11.72,28.8,9.42,30.29,5.53,45.98,32.92,7.98,15.93.8,69.51,24.27,17.96,7.87,100.84,22.69,32.66,62.82-14.21,8.37-78.46,23.14-101.94,18.46-46.48-9.27-58.12-4.86-91.72-.67-48.59,6.06-55.57.11-60.16-24.42-11.2-59.81,12.11-106.46,18.17-159.69.6-5.25.74-8.31.91-10.4,3.48-42.03-4.95-26.76-5.46-20.36"/>
  <path class="st0" d="M1293.42,1781.93c113.33-6.12,118.64,2.28,151.39,2.78,13.19.2,15.01,52.75,12.75,81.38-2.27,28.81,32.58,43.16,33.82,58.85,35.54,7.98,2.98-12.08,64.25,11.39,20.54,7.87,110.52,22.69,55.5,62.82-11.47,8.37-73.12,23.15-98.13,18.46-49.53-9.27-59.72-4.86-91.94-.66-46.61,6.07-87.51,9.35-83.64-16.69,7.5-50.62,4.86-28.6.24-59.48-3.81-25.5-18.28-62.76-15.71-80.52,1.9-13.12-21.58-52.86-25.26-59.98-12.07-23.35-4.49-23.25-3.27-18.35"/>
  <path class="st0" d="M969.16,1988.47c18.02,4.9,268.17,27.57,252.85-25.33,3.15-3.65,61.38,14.23-31.28,50.48-11.71,4.58-212.42,14.42-224.35,2.51-.49-.48-20.97-17.51,2.77-27.66"/>
  <path class="st0" d="M1347.57,1986.14c18.03,4.9,268.17,27.57,252.85-25.33,9.87,7.56,71.83,31.64-31.28,50.48-12.36,2.26-212.42,14.42-224.35,2.51-.48-.48-20.97-17.51,2.77-27.66"/>
  <path class="st0" d="M1222.81,1949.52c-14.47,8.01-151.33,35.28-35.39-7.71,8.2-3.04,1.93-2.72-11.23-1.92-4.03.24-4.89-5.01-11.03-3.26-5.03,1.44-19.37,9-24.15,10.1-41.19,9.44-49.79,11.64-48.38,8.58.63-1.35,37.2-8.62,41.68-12.85,15.35-14.52,23.17-19.19-19.38-12.09-13.93,2.32-33.98,18.9-62.18,19.52-18.17.4.56-2.27,19.07-17.27,7.43-6.03,24.03-8.29,24.03-22.02,0-30.24-13.98-64.18-9.69-79.81,2.54-9.25-1.62-20.35,26.96-19.06,6.25,6.15.4,11.25,1.87,16.86,2.09,7.94-4.75,20.76-7.85,27.85-12.78,29.23-42.91,46.9,77.55,71.84.52.1,11.29,4.09,13.79,10.38l24.32,10.85Z"/>
  <path class="st0" d="M1565.93,1943.78c-13.01,8.95-135.96,39.41-31.79-8.61,7.36-3.39,1.73-3.04-10.1-2.14-3.62.27-4.4-5.59-9.91-3.64-4.53,1.6-17.82,9.61-22.11,10.83-37.01,10.54-44.31,13.45-43.04,10.03.55-1.5,25.24-10.31,29.26-15.03,13.8-16.23,29-20.76-9.24-12.82-12.51,2.59-30.52,21.11-55.86,21.8-16.32.45.51-2.53,17.14-19.29,6.68-6.74,21.59-9.25,21.59-24.59,0-33.77-33.45-71.69-29.59-89.15,2.28-10.33-1.46-22.73,24.21-21.28,5.62,6.86.36,12.56,1.68,18.83,1.88,8.88,16.62,23.19,13.84,31.12-11.49,32.65-38.55,52.39,69.67,80.23.48.12,10.14,4.57,12.39,11.61l21.86,12.11Z"/>
  <path class="st0" d="M971.41,1602.65c8.83-42.52,33.44-72.23,31.64-88.42-1.4-12.57,2.02-90.21-5.69-124.04-1.85-8.13,27.31-105.99,38.93-141.29,38.93,2.43,159.74,1.35,232.5,6.87,101.7,7.72,84.07,8.89,99.88,146.2,5.42,47.09,38.11,109.89,58.19,180.97,24.54,86.85-101.33,24.51-181.45,49.51-34.8,10.86-22.2-66.54-22.23-66.86-.97-6.54-23.68-117.21-26-123.65-27.76,65.85-14.76,41.28-21.75,94.28-3.63,27.49-.8,79.26-28.16,85.11-56.28,12.03-200.36,9.65-175.86-18.69"/>
  <path class="st0" d="M980.29,1722.38c-15.49,0,140.34-11.35,133.37,7.71-6.55,17.88-10.03,19.1-15.65,45.37-.96,4.51-4.37,23.19-2.7,26.04-40.95-11.98-85.48,1.4-98.56-2.05-22.19-26.38,2.89-77.08-16.46-77.08"/>
  <path class="st0" d="M1268.07,1709.8c-15.49,0,157.5-12.57,150.55,4.95-6.53,16.44,15.92,35.65,10.33,59.83-.96,4.12-24.48,3.26-22.81,5.89-46.82-3.69-103.66,1.97-116.73-1.21-10.38-28.69-12.16-69.46-21.34-69.46"/>
</svg>