<?xml version="1.0" encoding="UTF-8"?>
<svg id="Camada_1" xmlns="http://www.w3.org/2000/svg" version="1.1" viewBox="0 0 2400 2400">
  <!-- Generator: Adobe Illustrator 29.8.1, SVG Export Plug-In . SVG Version: 2.1.1 Build 2)  -->
  <defs>
    <style>
      .st0 {
        fill-rule: evenodd;
      }
    </style>
  </defs>
  <path class="st0" d="M1376.33,1121.31c-2.76,9.31,3.95,17.36,2.8,25.74-1.7,12.39-9.37,18.66-19.76,22.77-15.36,6.07-30.81,11.94-46.35,17.52-3.47,1.25-7.82,2.05-11.22,1.09-17.6-4.97-36.02-7-44.65-24.89-6.55-13.6-10.47-2.45-24.93-14.22-7.83,23.12-6.5,42.89,4.69,62.07,1.99,3.41,5.36-24.15,6.23-20.53,4.55,19.17,15.11,35.18,25.04,51.76,8.53,14.21-6.68,49.47.8,64.32,21.25,42.23,13.44,59.87,33.91,102.47,6.54,13.61,11.32,31.38,13.63,46.28,3.27,21.15-9.51,55.76,6.88,70.76,8.08,7.39,14.31,17.11,15.11,29.58,1.17,18.24,18.56,25.5,17.15,47.05-1.11,17.06,7.76,56.29,11.91,73.75,4.3,18.15,10.18,25.81,15.29,43.72l-7.65,39.67,21.52,57.28-4.69,26.65c-49.32,52.03,5.88,120.32,59.43,91.92,10.78,3.09,30.14,12.41,39.01,18.95,9.59,7.06,18.98,8,29.88,7.52,9.29-.39,18.78.02,27.95,1.49,13.17,2.1-19.41-9.38-18.26,4.14,1.99,23.32-20.62,12.58-38.26,25.27-25.4,18.27-8.86,3.9-41.7.49-11.04-1.14-17.29,3.9-28.13,2.19-27.4-4.33-71.53,20.56-97.02,8.21-4.29-2.07-16.38,9.71-18.51,5.31-3.95-8.18-7.47-16.84-9.38-25.69-2.67-12.32-5.53-25.07-4.9-37.48.57-10.87,13.94-8.8,8.65-17.37-6.98-11.33-.63-27.97-8.12-38.97-2.85-4.18-6.94-7.51-10.38-11.31-2.61-2.87,11.8-3.02,11.56-6.14-1.6-20.29.57-35-6.54-52.75-4.18-10.45-8.16-21.17-13.95-30.74-6.36-10.47-3.79-44.12-11.39-53.8-15.75-20.1-8.67-31.03-16.54-55.75-11.11-34.94-16.65-103.35-22.09-139.81-1.66-11.06-5.07-21.51-14.66-29.76-4.71-4.04-5.2-12.93-7.79-19.55-2.6-6.63-32.07,11.59-36.34,6.22,127.82-162.86,60.04-71.67,6.86-101.15-6.08-7.6-24.28-81.96-35.83-82.48-3.67,9.21-31.07,62.03-35.12,71.75l-56.13,97.25c-8.65,10.66-10.05,22.69-9.67,35.49.74,26.17-8.3,49.99-21.55,71.32-14.71,23.7-32.99,45.16-49.72,67.6-7.86,10.55,4.77,22.31-7.48,29.27-4.21,2.39-6.76,8.09-9.47,12.65-8.21,13.75,44.02,66.36,36.02,80.24-1.33,2.3-3.85,4.93-3.51,7.05,3.93,25.05-.96,36.51-10.69,53.44-4.24,7.36-9.86,21.99-14.47,29.13-6.84,10.57-2.39,18.99,4.11,30.77,7.59,13.76,35.03,36.83,38.63,52.79,1.4,6.22,91.18,7.31,93.58,13.14,3.18,7.76,13.1,13.89,3.85,24-1.11,1.19,1.4,6.22,2.85,9.15,5.29,10.73-8.12-13.7-2.55-3.11,6.27,11.95-32.49,18.49-39.82,30.53-58.94,5.14-107.5-.12-176.65-9.96l-15.57-107.32c5.85-4.26.36-100.16,4.41-106.86,8.01-13.23,24.42-106.12,32.17-133.47,4.29-15.15,13.68-26.35,23.19-38.6,21.23-27.3-.96-67.7,18.49-96.39,4.84-7.13-3.44-14.07.75-21.58,3.86-6.91-5.2-19.59-4.01-27.17,3.28-21.06,6.19-42.31,7.07-63.58,1.62-39.34,51.21-66.94,53.26-106.24,1.03-19.81-60.75-53.94-57.15-73.57,4.81-26.16,26.24-44.2,31.73-72.55-6.37,1.95-13.69,3.63-20.52,6.45l6.75-475.68c4.16-16.58,12.39-22.99,29.62-23.7,14.01-.57,28.07.23,42.08-.31,16.85-.66,34.46,2.15,48.43-12.3,2.16-2.23,11,2.01,19.48,3.86,26.81-16.62,56.57-35.07,86.82-53.82.11-19.4,17.68-29.07,9.79-42.55-4.62,5.41-100.33-41.84-67.13,12.85l16.8-111.42c2.93-40.7,39.79-78.96,80.24-85.26,13.04-2.03,25.89-6.03,38.48-10.16,13.19-4.34,25.98-5.41,39.18-.5,11.14,4.15,19.49,9.76,22.07,23.01,2.64,13.48,11.14,20.58,26.53,22.02,19.04,1.76,37.78,7.25,56.48,11.81,3.71.91,6.67,4.89,13.66,10.31-13.2,4.18-22.19,7.91-31.55,9.79-17.63,3.55-24.53,22.43-15.75,36.59,2.47,3.98,15.78,29.22,18.76,32.77,8.79,8.79-13.8,2.76-12.42,21.38,1.6,21.6-5.54,40.7-15.02,59.37-4.54,8.95-11.14,14.19-21.66,14.73-30.55,1.59-53.39,21.08-58.54,52.45-2.75,16.82-1.74,34.28-1.88,51.46-.03,3.77,1.43,8.2,3.69,11.22,9.96,13.38,11.97,29.25,15.74,44.78,2.96,12.21,8.62,23.73,12.42,35.76,9.35,29.51,13.22,60,13.95,90.79.43,18.54-16.6,34.94-35.68,31.92-18.07-2.87-24.15,8.64-30.04,19.74-8.85,16.67-9.17,68.32-2.6,87.68,11.33,33.36,20.66,24.7,31.5,58.22,1.04,3.22,39.55-11.43,42.77-10.26,13.5,4.89-10.57,5.22,3.16,9.44,2.49.76,6.63-.36,7.67,1.08,10.07,13.99,18.54,9.2,30.98,19.5"/>
  <path class="st0" d="M1275.76,475.74c-23-17.88-110.94-14.5-131.54,4.25-2.57,2.34-1.89,6.39-2.19,9.14-.84,7.83-27.35-9.34-59.93,9.93-17.03,10.07-29.64,7.1-48.05,31.19-18.42,24.1-12,48.42-41.5,61.98-29.5,13.56-46.51,17.88,3.4,31.32,49.91,13.43,92.01-.49,111.35-1.28,19.34-.79,32.86-25.18,41.66-51.75,2.46-7.42,19.17,13.26,31.75,28.47,3.92,4.74-.16,3.6,6.99,6.75,24.02-8.86,45.53-55.91,4.55-54.51-18.14.62-28.52-62.71,18.65-33.07,12.97-53.45,36.81-14.36,64.86-42.41"/>
  <path class="st0" d="M1141.63,634.95c-51.18,61.16-42.04,101.01-68.95,175.33-16.05,44.33-2.05,91.43-35.63,161.82-26.84,56.24-17.13,114.58-56.11,161.92-13.61,16.53,59.6,8.55,78.08,11.12,44.38,6.18,122.89,1.92,161.44,16.93,32.46,12.64-23.69-74.63-34.63-109.7-4.41-14.15-5.73-64.87-10.35-77.34-17.16-46.32-26.32-79.93-21.42-92.21,6.96-17.44,51.71,4.31,109.18,17.64,4.83,1.11,3.06,40.82,9.44,44.22,8.99,4.8,87.34-32.48,65.66-70.39-11.89-20.8-26.96-103.93-49.96-161.3-5.95-14.85-13.53-28.51-23.37-39.76-10.28-11.74-6.14-13.11-16-14.76-18.9-3.16-96.91-36.01-107.37-23.51"/>
  <path class="st0" d="M1167.8,778.85c-11.03,41.58,2.94,4.72-14.89,47.19-27.26,64.92,26.72,41.53,74.27,60.94,77.96,31.82,19.02-16.07,30.9-53.58,5.73-18.11,28.21-68.66,5.91-94.29-9.76-11.21-38.75-21.61-63.58-9.16-6.42,3.21-30.64,41.46-32.62,48.9"/>
  <path class="st0" d="M1146.18,660.56c-32.02,11.28-96.35,23.83-131.77,14.59l-65.85,56.59-64.63,38.49-15.9,111.45-35.69,62.65,15.03,113.39c3.49,26.29,39.51-3.59,59.85,43.53,17.21,39.88,6.36,54.76,56.77,74.24,29.19,11.29,64.07-83.76,76.22-104.98,17.81-31.09,11.45-60.09,17.87-92.99l31.57-161.94c3.84-19.68,63.02-120.43,52.46-134.15-9.52-12.38,10.5-8.36,4.08-20.88"/>
  <path class="st0" d="M1276.58,749.8c-4.3-10.84,21.04-1.36,3.09-12.56-65.36-40.8-149.71-23.36-179.85-17.08-43.72,9.11-52.07,52.11-43.51,17.46,1.3-5.28-59.47-45.06-50.37-50.9,18.44-11.81,61.31-28.12,104.38-31.37,82.74-6.24,177.15,13.77,177.15,52.58,0,28.94-4.87,57.03-10.9,41.86"/>
  <path class="st0" d="M1006.58,1071.22c24.94-94.84,54-56.42,54-188.48,0-15.72-7.37-150.57,19.86-141.14-32.35,39.71-109.91,42.58-97.47,130.42,7.04,49.72-50.7,174.72-81.34,203.27,4.72,3.93,3.17,29.63,28.94,24.47,17.03-3.41,75.69-27.34,76.01-28.54"/>
  <path class="st0" d="M1376.54,457.55c-28.88-1.89-116.26,21.96-164.64,21.21-19.01-.29-48.2-2.91-68.67-.04,3.01-32.16,20.88-55.29,35.06-71.51,21.4-15.71,43.56-17.68,62.8-22.98l42.73-11.77c5.07-1.1,19,4.03,27.02,7.01,19.04,7.07,8.1,26.58,28.69,34.41,12.62,4.79,18,10.63,30.7,10.63,2.19,0,12.63,3.01,21.26,3.92,6.35.67,11.32,4.51,15.01,6.56,10.09,5.6,13.78,3.15,13.05,8.18-.39,2.74-14.14,16.28-43.01,14.38"/>
  <path class="st0" d="M869.55,1768.98c35.66-12.87,83.37-8.36,119.11-4.91,12.56,1.21,5.78,74.69-9.98,103.32-15.85,28.81-.41,46.72-6.56,62.42,31.77,7.98,35.01-10.16,85.2,13.31,16.83,7.87,97.57,22.69,23.63,62.81-15.43,8.37-81.79,23.14-104.6,18.46-45.14-9.27-57.41-4.86-91.61-.67-49.47,6.06-65.09-1.36-56.66-24.41,21.87-59.81,24.33-109.21,35.64-162.44,1.13-5.31,8.5-5.6,7.88-7.66-17.97-60.37-4.67-69.34-2.05-60.24"/>
  <path class="st0" d="M837.71,1987.5c17.32,3.86,264.21,21.7,256.49-19.95,3.67-2.87,59.34,11.21-38.53,39.75-12.36,3.6-214.49,11.35-224.71,1.97-.41-.38-18.45-13.79,6.75-21.77"/>
  <path class="st0" d="M1096.96,1954.03c-15.63,8.01-156.4,35.28-34.28-7.71,8.63-3.05,2.31-2.73-10.96-1.93-4.06.24-23.35,5.95-29.73,7.7-5.25,1.44,1.97,3.29-2.97,4.38-42.55,9.44-54.91,6.41-53.06,3.34.82-1.35,35.89-5.47,40.97-9.7,17.44-14.52,9.31-11.38-34.28-4.28-14.27,2.32-17.52,7.94-45.8,8.56-18.22.4.89-2.27,21.55-17.27,8.3-6.03,6.04,2.67,8.01-11.06,4.35-30.24.72-80.62,7.27-96.25,3.87-9.24,1.3-20.35,29.69-19.05,5.37,6.14-1.21,11.24-.54,16.86.94,7.94-7.74,20.76-11.86,27.85-16.98,29.23-55.13,63.34,61.75,88.27.51.11,29.88-6.87,31.47-.57l22.77,10.85Z"/>
  <path class="st0" d="M1269.49,1750.08c31.95-11.26,80.96-4.28,117.7,1.02,12.92,1.86,27.31,76.06,19.79,104.32-7.55,28.42,13.05,47.38,11.42,62.99,34.08,9.7,32.08-8.54,89.04,17.8,19.09,8.83,104.11,27.94,41.73,64.91-13.01,7.72-75.12,19.36-99.27,13.46-47.82-11.68-58.82-7.82-91.8-5.29-47.72,3.66-65.48-4.66-63.69-27.62,4.64-59.58-7.14-109.57-11.16-163-.4-5.32,6.88-5.26,5.68-7.37-35.36-62.14-24.65-70.58-19.41-61.22"/>
  <path class="st0" d="M1300.62,1970.17c18.43,4.78,270.47,35.33,250.75-7.31,2.84-2.73,62.57,14.36-27.08,38.38-11.33,3.04-211.22.71-224.14-9.32-.52-.4-22.42-14.92.47-21.75"/>
  <path class="st0" d="M1550.22,1949.29c-13.32,7.34-146.24,27.91-36.5-9.55,7.76-2.65,1.53-2.65-11.51-2.51-3.99.04-21.63,4.86-27.51,6.31-4.83,1.19,2.91,3.43-1.71,4.3-39.83,7.44-53.07,3.73-52.1.72.43-1.33,34.31-3.74,38.18-7.78,13.26-13.86,6.02-11.08-35.51-6.07-13.6,1.64-15.23,7.17-43.34,6.37-18.1-.51.24-2.25,16.58-16.43,6.56-5.7,6.81,3.02,4.83-10.81-4.37-30.46-22.5-81.75-20.47-97.28,1.2-9.18-4.56-20.58,24.2-17.83,7.14,6.5,2.03,11.34,4.31,17.08,3.23,8.11-1.76,20.68-3.83,27.67-8.56,28.79-36.88,61.48,87.18,92.66.54.14,27.9-5.46,31.31,1.01l25.89,12.15Z"/>
  <path class="st0" d="M883.54,1764.44c-17.04-40.79,27.73-134.32,44.05-198.95,10.74-42.52,27.13-71,22.51-108.89-1.53-12.52,10.46-136.82,3.27-170.64-1.73-8.13-25.02-89.3,63.7-135.35,44.55-14.47,204.4-3.15,217.65,15.45,32.54,45.7,38.78,66.47,47.52,154.7,9.63,97.23,73.38,199.31,84.22,287.83,6.17,50.37,10.66,106.3,27.91,146.1,10.87,25.09,21.64-20.5-122.73-2.91-14.84,1.81-46.45-72.06-36.13-81.32,10.58-9.49-.01-42.27-11.74-46.96-4.89-14-63.28-134.19-63.36-134.83-.83-6.54-58.58-109.14-60.87-115.58l-8.93,109.37-14.91,58.41c-5.12,20.07-8.7,52.44-27.8,96.93-14.02,32.64-44.21,15.34-53.88,122.63-26.21,17.1-91.8-15.96-110.47,4"/>
  <path class="st0" d="M944.51,1511.37c6.03-50.93-.21-77.83-2.01-94.02-1.39-12.56-9.21-93.01-5.69-140.85.61-8.31,10.49-72.35,61.37-130.08,38.93,2.43,112.08,1.35,184.84,6.87,101.7,7.72,114.91,20.1,130.72,157.4,5.42,47.1,10.08,90.27,30.16,161.35,8.83,31.25,15.82,51.34-.51,58.23-29.06,12.25-123.69,28.35-152.9,10.91l-36.26-66.86c-.97-6.54-37.7-72.35-51.23-118.04-27.76,65.85-9.15,46.89-16.14,99.89-3.62,27.48,7.61,45.62,5.48,73.9-23.94,9.73-172.32,9.64-147.82-18.7"/>
  <path class="st0" d="M871.27,1707.98c-15.05-3.63,130.14-9.81,128.06,10.36-2.96,28.63,10.66,62.02-7.68,69.28-14.68,5.82-7.02-3.38-5.36-.52-40.95-11.98-106.73-3.92-119.81-7.36-22.2-26.38,26.79-66.46,4.79-71.77"/>
  <path class="st0" d="M1245.26,1713.27c22.99-1.59,129.82-10.78,137.52.61,8.67,19.32,14.48,37.11,15.39,66.34.13,4.22-13.62-1.08-11.95,1.55-46.82-3.69-102.93,1.24-116.01-1.93-10.38-28.69-20.75-49.89-24.95-66.57"/>
  <path class="st0" d="M1275.76,475.74c-23-17.88-110.94-14.5-131.54,4.25-2.57,2.34-1.89,6.39-2.19,9.14-.84,7.83-27.35-9.34-59.93,9.93-17.03,10.07-29.64,7.1-48.05,31.19-18.42,24.1-12,48.42-41.5,61.98-29.5,13.56-46.51,17.88,3.4,31.32,49.91,13.43,92.01-.49,111.35-1.28,19.34-.79,32.86-25.18,41.66-51.75,2.46-7.42,19.17,13.26,31.75,28.47,3.92,4.74-.16,3.6,6.99,6.75,24.02-8.86,45.53-55.91,4.55-54.51-18.14.62-28.52-62.71,18.65-33.07,12.97-53.45,36.81-14.36,64.86-42.41"/>
  <path class="st0" d="M1141.63,634.95c-51.18,61.16-42.04,101.01-68.95,175.33-16.05,44.33-2.05,91.43-35.63,161.82-26.84,56.24-17.13,114.58-56.11,161.92-13.61,16.53,59.6,8.55,78.08,11.12,44.38,6.18,122.89,1.92,161.44,16.93,32.46,12.64-23.69-74.63-34.63-109.7-4.41-14.15-5.73-64.87-10.35-77.34-17.16-46.32-26.32-79.93-21.42-92.21,6.96-17.44,51.71,4.31,109.18,17.64,4.83,1.11,3.06,40.82,9.44,44.22,8.99,4.8,87.34-32.48,65.66-70.39-11.89-20.8-26.96-103.93-49.96-161.3-5.95-14.85-13.53-28.51-23.37-39.76-10.28-11.74-6.14-13.11-16-14.76-18.9-3.16-96.91-36.01-107.37-23.51"/>
  <path class="st0" d="M1167.8,778.85c-11.03,41.58,2.94,4.72-14.89,47.19-27.26,64.92,26.72,41.53,74.27,60.94,77.96,31.82,19.02-16.07,30.9-53.58,5.73-18.11,28.21-68.66,5.91-94.29-9.76-11.21-38.75-21.61-63.58-9.16-6.42,3.21-30.64,41.46-32.62,48.9"/>
  <path class="st0" d="M1146.18,660.56c-32.02,11.28-96.35,23.83-131.77,14.59l-65.85,56.59-64.63,38.49-15.9,111.45-35.69,62.65,15.03,113.39c3.49,26.29,39.51-3.59,59.85,43.53,17.21,39.88,6.36,54.76,56.77,74.24,29.19,11.29,64.07-83.76,76.22-104.98,17.81-31.09,11.45-60.09,17.87-92.99l31.57-161.94c3.84-19.68,63.02-120.43,52.46-134.15-9.52-12.38,10.5-8.36,4.08-20.88"/>
  <path class="st0" d="M1276.58,749.8c-4.3-10.84,21.04-1.36,3.09-12.56-65.36-40.8-149.71-23.36-179.85-17.08-43.72,9.11-52.07,52.11-43.51,17.46,1.3-5.28-59.47-45.06-50.37-50.9,18.44-11.81,61.31-28.12,104.38-31.37,82.74-6.24,177.15,13.77,177.15,52.58,0,28.94-4.87,57.03-10.9,41.86"/>
  <path class="st0" d="M1006.58,1071.22c24.94-94.84,54-56.42,54-188.48,0-15.72-7.37-150.57,19.86-141.14-32.35,39.71-109.91,42.58-97.47,130.42,7.04,49.72-50.7,174.72-81.34,203.27,4.72,3.93,3.17,29.63,28.94,24.47,17.03-3.41,75.69-27.34,76.01-28.54"/>
  <path class="st0" d="M869.55,1768.98c35.66-12.87,83.37-8.36,119.11-4.91,12.56,1.21,5.78,74.69-9.98,103.32-15.85,28.81-.41,46.72-6.56,62.42,31.77,7.98,35.01-10.16,85.2,13.31,16.83,7.87,97.57,22.69,23.63,62.81-15.43,8.37-81.79,23.14-104.6,18.46-45.14-9.27-57.41-4.86-91.61-.67-49.47,6.06-65.09-1.36-56.66-24.41,21.87-59.81,24.33-109.21,35.64-162.44,1.13-5.31,8.5-5.6,7.88-7.66-17.97-60.37-4.67-69.34-2.05-60.24"/>
  <path class="st0" d="M837.71,1987.5c17.32,3.86,264.21,21.7,256.49-19.95,3.67-2.87,59.34,11.21-38.53,39.75-12.36,3.6-214.49,11.35-224.71,1.97-.41-.38-18.45-13.79,6.75-21.77"/>
  <path class="st0" d="M1096.96,1954.03c-15.63,8.01-156.4,35.28-34.28-7.71,8.63-3.05,2.31-2.73-10.96-1.93-4.06.24-23.35,5.95-29.73,7.7-5.25,1.44,1.97,3.29-2.97,4.38-42.55,9.44-54.91,6.41-53.06,3.34.82-1.35,35.89-5.47,40.97-9.7,17.44-14.52,9.31-11.38-34.28-4.28-14.27,2.32-17.52,7.94-45.8,8.56-18.22.4.89-2.27,21.55-17.27,8.3-6.03,6.04,2.67,8.01-11.06,4.35-30.24.72-80.62,7.27-96.25,3.87-9.24,1.3-20.35,29.69-19.05,5.37,6.14-1.21,11.24-.54,16.86.94,7.94-7.74,20.76-11.86,27.85-16.98,29.23-55.13,63.34,61.75,88.27.51.11,29.88-6.87,31.47-.57l22.77,10.85Z"/>
  <path class="st0" d="M1269.49,1750.08c31.95-11.26,80.96-4.28,117.7,1.02,12.92,1.86,27.31,76.06,19.79,104.32-7.55,28.42,13.05,47.38,11.42,62.99,34.08,9.7,32.08-8.54,89.04,17.8,19.09,8.83,104.11,27.94,41.73,64.91-13.01,7.72-75.12,19.36-99.27,13.46-47.82-11.68-58.82-7.82-91.8-5.29-47.72,3.66-65.48-4.66-63.69-27.62,4.64-59.58-7.14-109.57-11.16-163-.4-5.32,6.88-5.26,5.68-7.37-35.36-62.14-24.65-70.58-19.41-61.22"/>
  <path class="st0" d="M1300.62,1970.17c18.43,4.78,270.47,35.33,250.75-7.31,2.84-2.73,62.57,14.36-27.08,38.38-11.33,3.04-211.22.71-224.14-9.32-.52-.4-22.42-14.92.47-21.75"/>
  <path class="st0" d="M1550.22,1949.29c-13.32,7.34-146.24,27.91-36.5-9.55,7.76-2.65,1.53-2.65-11.51-2.51-3.99.04-21.63,4.86-27.51,6.31-4.83,1.19,2.91,3.43-1.71,4.3-39.83,7.44-53.07,3.73-52.1.72.43-1.33,34.31-3.74,38.18-7.78,13.26-13.86,6.02-11.08-35.51-6.07-13.6,1.64-15.23,7.17-43.34,6.37-18.1-.51.24-2.25,16.58-16.43,6.56-5.7,6.81,3.02,4.83-10.81-4.37-30.46-22.5-81.75-20.47-97.28,1.2-9.18-4.56-20.58,24.2-17.83,7.14,6.5,2.03,11.34,4.31,17.08,3.23,8.11-1.76,20.68-3.83,27.67-8.56,28.79-36.88,61.48,87.18,92.66.54.14,27.9-5.46,31.31,1.01l25.89,12.15Z"/>
  <path class="st0" d="M883.54,1764.44c-17.04-40.79,27.73-134.32,44.05-198.95,10.74-42.52,27.13-71,22.51-108.89-1.53-12.52,10.46-136.82,3.27-170.64-1.73-8.13-25.02-89.3,63.7-135.35,44.55-14.47,204.4-3.15,217.65,15.45,32.54,45.7,38.78,66.47,47.52,154.7,9.63,97.23,73.38,199.31,84.22,287.83,6.17,50.37,10.66,106.3,27.91,146.1,10.87,25.09,21.64-20.5-122.73-2.91-14.84,1.81-46.45-72.06-36.13-81.32,10.58-9.49-.01-42.27-11.74-46.96-4.89-14-63.28-134.19-63.36-134.83-.83-6.54-58.58-109.14-60.87-115.58l-8.93,109.37-14.91,58.41c-5.12,20.07-8.7,52.44-27.8,96.93-14.02,32.64-44.21,15.34-53.88,122.63-26.21,17.1-91.8-15.96-110.47,4"/>
  <path class="st0" d="M944.51,1511.37c6.03-50.93-.21-77.83-2.01-94.02-1.39-12.56-9.21-93.01-5.69-140.85.61-8.31,10.49-72.35,61.37-130.08,38.93,2.43,112.08,1.35,184.84,6.87,101.7,7.72,114.91,20.1,130.72,157.4,5.42,47.1,10.08,90.27,30.16,161.35,8.83,31.25,15.82,51.34-.51,58.23-29.06,12.25-123.69,28.35-152.9,10.91l-36.26-66.86c-.97-6.54-37.7-72.35-51.23-118.04-27.76,65.85-9.15,46.89-16.14,99.89-3.62,27.48,7.61,45.62,5.48,73.9-23.94,9.73-172.32,9.64-147.82-18.7"/>
  <path class="st0" d="M871.27,1707.98c-15.05-3.63,130.14-9.81,128.06,10.36-2.96,28.63,10.66,62.02-7.68,69.28-14.68,5.82-7.02-3.38-5.36-.52-40.95-11.98-106.73-3.92-119.81-7.36-22.2-26.38,26.79-66.46,4.79-71.77"/>
  <path class="st0" d="M1245.26,1713.27c22.99-1.59,129.82-10.78,137.52.61,8.67,19.32,14.48,37.11,15.39,66.34.13,4.22-13.62-1.08-11.95,1.55-46.82-3.69-102.93,1.24-116.01-1.93-10.38-28.69-20.75-49.89-24.95-66.57"/>
</svg>